    *********** ****    ****      ***      ******** *********** ****    *** **********
           *+*     +*+*+* *+*+*+   *+* *+*   *+*    *+*    *+*     *+*+*   *+* *+*        
           +*+     +*+ +*+*+ +*+  +*+   +*+  +*+           +*+     *+*+*+  +*+ +*+        
           +$+     +$+  +*+  +$+ +$++*++$++* *$*           +$+     +$+ +*+ +$+ +$++*++$  
           +$+     +$+       +$+ +$+     +$+ +$+   +$+$    +$+     +$+  +$+$+$ +$+        
           $+$     $+$       $+$ $+$     $+$ $+$    $+$    $+$     $+$   $+$+$ $+$        
       $$$$$$$$$$$ $$$       $$$ $$$     $$$  $$$$$$$$ $$$$$$$$$$$ $$$    $$$$ $$$$$$$$$$     
                                                



                           Another Fine Release Brought to you from - IMAGiNE                   
                                                 

********************************************************************************************************************                                
                                     The Fighter 2010 SCR XViD - IMAGiNE
********************************************************************************************************************

Ripper ...........: IMAGiNE                                        IMDB Rating.......:8.5/10                             
Video Codec.......: XVID                                         Release Date......:31/12/10
Audio Codec.......:MP3                                           Theatre Date......:17/12/10
Audio Bitrate.....:192                                              Runtime.......:1h 51mn
Subtitles.........:NIL                                                 Language..........:ENGLISH
Resolution...... 720 x 304                                      IMDb URL..........:http://www.imdb.com/title/tt0964517/


DETAILS:

Video
ID                               : 0
Format                           : MPEG-4 Visual
Format profile                   : Advanced Simple@L5
Format settings, BVOP            : Yes
Format settings, QPel            : No
Format settings, GMC             : No warppoints
Format settings, Matrix          : Default (H.263)
Muxing mode                      : Packed bitstream
Codec ID                         : XVID
Codec ID/Hint                    : XviD
Duration                         : 1h 51mn
Bit rate                         : 1 560 Kbps
Width                            : 720 pixels
Height                           : 304 pixels
Display aspect ratio             : 2.35:1
Frame rate                       : 23.976 fps
Color space                      : YUV
Chroma subsampling               : 4:2:0
Bit depth                        : 8 bits
Scan type                        : Progressive
Bits/(Pixel*Frame)               : 0.297
Stream size                      : 1.21 GiB (89%)
Writing library                  : XviD 1.1.2 (UTC 2006-11-01)

Audio
ID                               : 1
Format                           : MPEG Audio
Format version                   : Version 1
Format profile                   : Layer 3
Codec ID                         : 55
Codec ID/Hint                    : MP3
Duration                         : 1h 51mn
Bit rate mode                    : Constant
Bit rate                         : 192 Kbps
Channel(s)                       : 2 channels
Sampling rate                    : 44.1 KHz
Stream size                      : 153 MiB (11%)
Alignment                        : Split accross interleaves
Interleave, duration             : 42 ms (1.00 video frame)
Interleave, preload duration     : 500 ms


SOURCES:

VIDEO:The fighter.avi ......Thanks LL
AUDIO:The fighter.avi ......Thanks LL

NOTES:

IMAGiNE bringing you another release..........The fighter 2010 

Well heres a nice new year treat for ya all :P
We were sent a avi file of this so we can only do so much,unless if someone as the source they 
want to send it us ;-)
Anyway ....the avi was a tad blurry,had black borders top and bottom and thin down both sides.
We've cropped and resized and clean the video up the best we could,but got to so nothing special for a 
screener but still more than watchable.

Enjoy folks :)

SCREENS:


GREETS:

FLAWL3SS,ViSiON,FUSiON,Rx,SecretMyth,BirdFlu,ELEKTRI4KA,Serenity,Autotron
And to all the other p2p grps past and present 

Looking for these,syncers,cammers,audio,silver supplier.....Have anything to offer????......
Contact us imaginegroup@hushmail.com